<svg width="16" height="24" viewBox="0 0 16 24" fill="none" xmlns="http://www.w3.org/2000/svg">
<path d="M8.00248 0.692383C6.58348 0.692383 4.60348 1.22038 2.82148 3.36538C1.10548 5.41138 0.0164795 8.38138 0.0164795 12.0114C0.0164795 15.6414 1.10548 18.6114 2.82148 20.6574C4.40548 22.5384 6.31948 23.3634 8.00248 23.3634C9.68548 23.3634 11.5995 22.5384 13.1835 20.6574C14.8995 18.6114 15.9885 15.6414 15.9885 12.0114C15.9885 8.38138 14.8995 5.41138 13.1835 3.36538C11.4015 1.22038 9.42148 0.692383 8.00248 0.692383ZM8.00248 22.0434C7.24348 22.0434 5.52748 21.8124 3.91048 19.7994C2.49148 18.0504 1.53448 15.5094 1.53448 12.0114C1.53448 8.48038 2.49148 5.97238 3.91048 4.22338C4.70248 3.23338 6.05548 2.01238 8.00248 2.01238C9.94948 2.01238 11.3025 3.23338 12.0945 4.22338C13.5135 5.97238 14.4705 8.48038 14.4705 12.0114C14.4705 15.5094 13.5135 18.0504 12.0945 19.7994C10.4775 21.8124 8.76148 22.0434 8.00248 22.0434Z" fill="black"/>
<path d="M8.00248 0.692383C6.58348 0.692383 4.60348 1.22038 2.82148 3.36538C1.10548 5.41138 0.0164795 8.38138 0.0164795 12.0114C0.0164795 15.6414 1.10548 18.6114 2.82148 20.6574C4.40548 22.5384 6.31948 23.3634 8.00248 23.3634C9.68548 23.3634 11.5995 22.5384 13.1835 20.6574C14.8995 18.6114 15.9885 15.6414 15.9885 12.0114C15.9885 8.38138 14.8995 5.41138 13.1835 3.36538C11.4015 1.22038 9.42148 0.692383 8.00248 0.692383ZM8.00248 22.0434C7.24348 22.0434 5.52748 21.8124 3.91048 19.7994C2.49148 18.0504 1.53448 15.5094 1.53448 12.0114C1.53448 8.48038 2.49148 5.97238 3.91048 4.22338C4.70248 3.23338 6.05548 2.01238 8.00248 2.01238C9.94948 2.01238 11.3025 3.23338 12.0945 4.22338C13.5135 5.97238 14.4705 8.48038 14.4705 12.0114C14.4705 15.5094 13.5135 18.0504 12.0945 19.7994C10.4775 21.8124 8.76148 22.0434 8.00248 22.0434Z" fill="#EFEEEB"/>
</svg>
