<svg width="59" height="15" viewBox="0 0 59 15" fill="none" xmlns="http://www.w3.org/2000/svg">
<mask id="path-1-inside-1" fill="white">
<path d="M58.5079 6.73657L2.94517 6.73657L5.01085 4.71867L8.74163 1.07417L7.64203 6.06568e-07L0.510342 6.96675C0.361111 7.11253 -0.000186831 7.49616 -0.000186831 7.49616C-0.000186831 7.49616 0.361111 7.89514 0.510342 8.04092L4.03691 11.4859C4.04477 11.4859 4.04477 11.4859 4.05262 11.4859L7.64988 15L8.74948 13.9258L2.95303 8.26343L58.5 8.26343"/>
</mask>
<path d="M58.5079 6.73657L2.94517 6.73657L5.01085 4.71867L8.74163 1.07417L7.64203 6.06568e-07L0.510342 6.96675C0.361111 7.11253 -0.000186831 7.49616 -0.000186831 7.49616C-0.000186831 7.49616 0.361111 7.89514 0.510342 8.04092L4.03691 11.4859C4.04477 11.4859 4.04477 11.4859 4.05262 11.4859L7.64988 15L8.74948 13.9258L2.95303 8.26343L58.5 8.26343" fill="white"/>
</svg>
