<svg width="59" height="15" viewBox="0 0 59 15" fill="none" xmlns="http://www.w3.org/2000/svg">
<mask id="path-1-inside-1" fill="white">
<path d="M-4.19743e-05 8.26343L55.5626 8.26343L53.497 10.2813L49.7662 13.9258L50.8658 15L57.9975 8.03325C58.1467 7.88747 58.508 7.50384 58.508 7.50384C58.508 7.50384 58.1467 7.10486 57.9975 6.95908L54.4709 3.51407C54.463 3.51407 54.463 3.51407 54.4552 3.51407L50.8579 -3.15722e-07L49.7583 1.07417L55.5548 6.73657L0.00781224 6.73657"/>
</mask>
<path d="M-4.19743e-05 8.26343L55.5626 8.26343L53.497 10.2813L49.7662 13.9258L50.8658 15L57.9975 8.03325C58.1467 7.88747 58.508 7.50384 58.508 7.50384C58.508 7.50384 58.1467 7.10486 57.9975 6.95908L54.4709 3.51407C54.463 3.51407 54.463 3.51407 54.4552 3.51407L50.8579 -3.15722e-07L49.7583 1.07417L55.5548 6.73657L0.00781224 6.73657" fill="white"/>
</svg>
