<svg width="10" height="10" viewBox="0 0 10 10" fill="none" xmlns="http://www.w3.org/2000/svg">
<g opacity="0.8">
<path d="M4.52214 5.00153L0.0957215 9.45888C-0.0272521 9.58271 -0.0272521 9.78333 0.0957215 9.90716C0.15713 9.96916 0.237758 10 0.31823 10C0.398858 10 0.47933 9.96916 0.540739 9.90716L5.00044 5.4163L9.46015 9.90716C9.52171 9.96916 9.60219 10 9.68266 10C9.76313 10 9.84376 9.96916 9.90517 9.90716C10.0281 9.78333 10.0281 9.58271 9.90517 9.45888L5.4789 5.00153L9.90814 0.54104C10.0311 0.417208 10.0311 0.216589 9.90814 0.0927565C9.78516 -0.0309188 9.58594 -0.0309188 9.46312 0.0927565L5.0006 4.58677L0.537614 0.0929138C0.41464 -0.0307615 0.21557 -0.0307615 0.0925964 0.0929138C-0.0303772 0.216747 -0.0303772 0.417365 0.0925964 0.541198L4.52214 5.00153Z" fill="#DCDCDC"/>
</g>
</svg>
