<svg width="91" height="28" viewBox="0 0 91 28" fill="none" xmlns="http://www.w3.org/2000/svg">
<path d="M15.8798 0V3.91969L7.52006 23.9984H15.8798V27.9982H3V24.0785L11.3597 3.99974H3.40025V0H15.8798V0Z" fill="#F5F5F3"/>
<path d="M18.4795 0H22.8795V27.9991H18.4795V0Z" fill="#F5F5F3"/>
<path d="M31.838 16.8405L30.4781 19.4002V28.0001H26.0781V0.000976562H30.4781V12.2012L36.238 0.000976562H40.638L34.5188 12.4805L40.638 28.0001H36.118L31.838 16.8405Z" fill="#F5F5F3"/>
<path d="M54.8378 0V3.91969L46.4781 23.9984H54.8378V27.9982H41.958V24.0785L50.3177 3.99974H42.3583V0H54.8378V0Z" fill="#F5F5F3"/>
<path d="M71.6759 28.0001H67.2359L66.4764 22.9197H61.0767L60.3171 28.0001H56.2773L60.7565 0.000976562H67.1968L71.6759 28.0001ZM61.6361 19.12H65.876L63.7565 4.9604L61.6361 19.12Z" fill="#F5F5F3"/>
<path d="M79.4757 16.8405L78.1158 19.4002V28.0001H73.7158V0.000976562H78.1158V12.2012L83.8757 0.000976562H88.2757L82.1556 12.4805L88.2757 28.0001H83.7557L79.4757 16.8405Z" fill="#F5F5F3"/>
</svg>
