<svg width="88" height="27" viewBox="0 0 88 27" fill="none" xmlns="http://www.w3.org/2000/svg">
<path d="M2.774 24.396L13.414 1.596V0H0.493999V2.204H10.564L0 24.814V26.6H13.604V24.396H2.774Z" fill="#F5F5F3"/>
<path d="M16.7148 0V26.6H19.0708V0H16.7148Z" fill="#F5F5F3"/>
<path d="M36.418 26.6H39.23L29.692 11.59L38.166 0H35.24L28.438 9.576L26.272 12.692V0H23.916V26.6H26.272V16.226L28.172 13.642L36.418 26.6Z" fill="#F5F5F3"/>
<path d="M42.2271 24.396L52.8671 1.596V0H39.9471V2.204H50.0171L39.4531 24.814V26.6H53.0571V24.396H42.2271Z" fill="#F5F5F3"/>
<path d="M67.7199 26.6H70.228L63.236 0H60.652L53.66 26.6H56.168L57.726 20.368H66.1619L67.7199 26.6ZM58.2579 18.24L60.9939 7.22C61.4119 5.586 61.792 3.686 61.906 3.04H61.9819C62.0959 3.686 62.476 5.586 62.894 7.22L65.63 18.24H58.2579Z" fill="#F5F5F3"/>
<path d="M85.0742 26.6H87.8862L78.3483 11.59L86.8223 0H83.8962L77.0942 9.576L74.9282 12.692V0H72.5723V26.6H74.9282V16.226L76.8282 13.642L85.0742 26.6Z" fill="#F5F5F3"/>
</svg>
