<svg width="93" height="28" viewBox="0 0 93 28" fill="none" xmlns="http://www.w3.org/2000/svg">
<path d="M12.8798 0V3.91969L4.52006 23.9984H12.8798V27.9982H0V24.0785L8.3597 3.99974H0.400246V0H12.8798V0Z" fill="black"/>
<path d="M15.4795 0H19.8795V27.9991H15.4795V0Z" fill="black"/>
<path d="M28.838 16.8405L27.4781 19.4002V28.0001H23.0781V0.000976562H27.4781V12.2012L33.238 0.000976562H37.638L31.5188 12.4805L37.638 28.0001H33.118L28.838 16.8405Z" fill="black"/>
<path d="M51.8378 0V3.91969L43.4781 23.9984H51.8378V27.9982H38.958V24.0785L47.3177 3.99974H39.3583V0H51.8378V0Z" fill="black"/>
<path d="M68.6759 28.0001H64.2359L63.4764 22.9197H58.0767L57.3171 28.0001H53.2773L57.7565 0.000976562H64.1968L68.6759 28.0001ZM58.6361 19.12H62.876L60.7565 4.9604L58.6361 19.12Z" fill="black"/>
<path d="M76.4757 16.8405L75.1158 19.4002V28.0001H70.7158V0.000976562H75.1158V12.2012L80.8757 0.000976562H85.2757L79.1556 12.4805L85.2757 28.0001H80.7557L76.4757 16.8405Z" fill="black"/>
</svg>
