<svg xmlns="http://www.w3.org/2000/svg" viewBox="0 0 259.09 259.32"><defs><style>.cls-1{fill:#f5f5f3;}</style></defs><title>Asset 3</title><g id="Layer_2" data-name="Layer 2"><g id="Layer_1-2" data-name="Layer 1"><path d="M116.07.23C66.27,5.73,23.77,39.53,6.77,87c-5.2,14.6-7.2,28.5-6.7,46,.2,7.7.6,15.1,1,16.5s.8,4.1,1.1,6,.8,4.4,1.1,5.5.8,2.6,1,3.2a43.76,43.76,0,0,0,1.6,5.3c.3.8,1.3,3.7,2.3,6.5,3.2,8.9,10.4,22,17,30.9A130.87,130.87,0,0,0,99.07,256c8.6,2.2,10.1,2.3,24.5,3.1,39.9,2.2,78.4-14.4,105.3-45.5,13.9-16,25.6-41.7,29.1-63.6,1.4-8.8,1.5-33.4.2-40-.4-1.7-.9-4.4-1.2-6-.9-5.2-4.7-18-5.6-19a4.23,4.23,0,0,1-.8-2.3c0-2.1-8.5-18.4-13.7-26.5-6.1-9.2-23.6-26.7-33.4-33.5a137.52,137.52,0,0,0-49.9-20.8C146.67.53,123.07-.47,116.07.23Z"/><path class="cls-1" d="M111.52,190.62,170.37,64.3V51.55H92.69V68.77h55.48L89.58,194.64v13.13h81.93V190.62Z"/></g></g></svg>